HIERARCHY
ROOT joint_Root
{
	OFFSET 0.0 0.0 0.0
	CHANNELS 6 Xposition Yposition Zposition Zrotation Xrotation Yrotation 
	JOINT Hips
	{
		OFFSET 4.5925 91.4895 -427.239
		CHANNELS 6 Xposition Yposition Zposition Zrotation Xrotation Yrotation 
		JOINT Spine
		{
			OFFSET 15.7357 0.0 0.0
			CHANNELS 6 Xposition Yposition Zposition Zrotation Xrotation Yrotation 
			JOINT Chest
			{
				OFFSET 8.98455 -0.406207 0.0
				CHANNELS 6 Xposition Yposition Zposition Zrotation Xrotation Yrotation 
				JOINT Neck
				{
					OFFSET 16.3773 0.0 0.0
					CHANNELS 6 Xposition Yposition Zposition Zrotation Xrotation Yrotation 
					JOINT Head
					{
						OFFSET 6.45672 0.0 0.0
						CHANNELS 6 Xposition Yposition Zposition Zrotation Xrotation Yrotation 
						End Site
						{
							OFFSET 0.0 0.0 0.0
						}
					}
				}
				JOINT Shoulder_L
				{
					OFFSET 12.9942 -0.242716 4.98039
					CHANNELS 6 Xposition Yposition Zposition Zrotation Xrotation Yrotation 
					JOINT UpperArm_L
					{
						OFFSET 5.34809 0.0 0.0
						CHANNELS 6 Xposition Yposition Zposition Zrotation Xrotation Yrotation 
						JOINT LowerArm_L
						{
							OFFSET 24.3286 1.87007e-05 0.0
							CHANNELS 6 Xposition Yposition Zposition Zrotation Xrotation Yrotation 
							JOINT Hand_L
							{
								OFFSET 22.2916 0.0 0.0
								CHANNELS 6 Xposition Yposition Zposition Zrotation Xrotation Yrotation 
								End Site
								{
									OFFSET 0.0 0.0 0.0
								}
							}
						}
					}
				}
				JOINT Shoulder_R
				{
					OFFSET 12.9945 -0.242716 -4.98039
					CHANNELS 6 Xposition Yposition Zposition Zrotation Xrotation Yrotation 
					JOINT UpperArm_R
					{
						OFFSET -5.34813 0.0 0.0
						CHANNELS 6 Xposition Yposition Zposition Zrotation Xrotation Yrotation 
						JOINT LowerArm_R
						{
							OFFSET -24.3289 0.000322201 0.0
							CHANNELS 6 Xposition Yposition Zposition Zrotation Xrotation Yrotation 
							JOINT Hand_R
							{
								OFFSET -22.2915 -0.000108084 0.0
								CHANNELS 6 Xposition Yposition Zposition Zrotation Xrotation Yrotation 
								End Site
								{
									OFFSET 0.0 0.0 0.0
								}
							}
						}
					}
				}
			}
		}
		JOINT UpperLeg_L
		{
			OFFSET -2.19248 -6.46944 0.0
			CHANNELS 6 Xposition Yposition Zposition Zrotation Xrotation Yrotation 
			JOINT LowerLeg_L
			{
				OFFSET 39.0811 0.0 -1.23785e-05
				CHANNELS 6 Xposition Yposition Zposition Zrotation Xrotation Yrotation 
				JOINT Foot_L
				{
					OFFSET 40.9854 0.0 -1.26872e-05
					CHANNELS 6 Xposition Yposition Zposition Zrotation Xrotation Yrotation 
					JOINT Toes_L
					{
						OFFSET 11.7543 0.0 0.0
						CHANNELS 6 Xposition Yposition Zposition Zrotation Xrotation Yrotation 
						End Site
						{
							OFFSET 0.0 0.0 0.0
						}
					}
				}
			}
		}
		JOINT UpperLeg_R
		{
			OFFSET -2.19251 6.46944 0.0
			CHANNELS 6 Xposition Yposition Zposition Zrotation Xrotation Yrotation 
			JOINT LowerLeg_R
			{
				OFFSET -39.0811 -0.00228153 -0.0401928
				CHANNELS 6 Xposition Yposition Zposition Zrotation Xrotation Yrotation 
				JOINT Foot_R
				{
					OFFSET -40.9854 0.0 0.0
					CHANNELS 6 Xposition Yposition Zposition Zrotation Xrotation Yrotation 
					JOINT Toes_R
					{
						OFFSET -11.7543 0.0 0.0
						CHANNELS 6 Xposition Yposition Zposition Zrotation Xrotation Yrotation 
						End Site
						{
							OFFSET 0.0 0.0 0.0
						}
					}
				}
			}
		}
	}
}
MOTION
Frames:	5
Frame Time:	0.0333333
0.000000 0.000000 0.000000 0.000000 0.000000 -0.000000 0.389552 89.496900 -453.085000 89.561700 -8.011600 0.329606 15.735700 0.000005 -0.000001 105.621000 83.395000 -105.680000 8.984550 -0.406207 -0.000000 4.965590 3.551400 -0.271584 16.377300 -0.000001 -0.000001 -1.329420 -2.324890 3.230520 6.456720 -0.000001 -0.000000 -3.965980 -3.464790 0.175209 12.994200 -0.242716 4.980390 -90.467400 1.559140 -73.309300 5.348090 -0.000007 -0.000001 -72.202700 16.607900 24.994500 24.328600 0.000019 0.000005 6.515750 2.485490 -69.210600 22.291600 -0.000001 0.000005 11.578500 5.501420 -6.591340 12.994500 -0.242716 -4.980390 89.109900 5.946920 -81.471600 -5.348130 -0.000001 -0.000004 -52.676100 15.675600 -39.957500 -24.328900 0.000322 -0.000009 -15.777200 -0.193785 -89.313000 -22.291500 -0.000108 -0.000004 27.818500 5.580040 -10.214300 -2.192480 -6.469440 -0.000000 179.818000 -11.913700 -24.816200 39.081100 -0.000007 -0.000012 -0.154521 0.206192 36.848500 40.985400 -0.000006 -0.000013 1.382070 -1.064490 -62.165300 11.754300 -0.000000 0.000003 -0.000007 -0.000114 -16.582100 -2.192510 6.469440 -0.000001 173.446000 14.482200 171.628000 -39.081100 -0.002282 -0.040193 0.147579 -0.109420 52.836000 -40.985400 0.000008 0.000006 9.269440 1.208140 -59.802300 -11.754300 -0.000006 -0.000006 -0.110673 -0.470298 -36.257100
0.000000 0.000000 0.000000 0.000000 0.000000 -0.000000 0.925150 88.504700 -449.448000 89.516900 -7.521820 1.591740 15.735700 0.000005 -0.000001 101.036000 83.144800 -101.041000 8.984550 -0.406207 -0.000000 5.695540 2.618250 -0.139536 16.377300 -0.000001 -0.000001 -1.645960 -2.275630 3.121250 6.456720 -0.000001 -0.000000 -4.154360 -3.004170 0.506811 12.994200 -0.242716 4.980390 -90.763000 2.650040 -73.929700 5.348090 -0.000007 -0.000001 -70.397700 16.296100 19.952100 24.328600 0.000019 0.000005 5.724390 2.000310 -70.802100 22.291600 -0.000001 0.000005 12.019400 5.492140 -6.219920 12.994500 -0.242716 -4.980390 88.955100 7.145970 -81.658600 -5.348130 -0.000001 -0.000004 -52.419800 17.761900 -35.047200 -24.328900 0.000322 -0.000009 -15.172300 -0.269772 -89.004100 -22.291500 -0.000108 -0.000004 27.617900 5.585080 -10.489500 -2.192480 -6.469440 -0.000000 179.995000 -10.551000 -23.691100 39.081100 -0.000007 -0.000012 -0.277546 0.304708 42.329700 40.985400 -0.000006 -0.000013 1.236150 -1.881810 -67.479300 11.754300 -0.000000 0.000003 -0.000022 -0.000275 -16.588300 -2.192510 6.469440 -0.000001 173.426000 13.073700 166.927000 -39.081100 -0.002282 -0.040193 0.208352 -0.100645 63.870900 -40.985400 0.000008 0.000006 9.840760 -2.280180 -53.286400 -11.754300 -0.000006 -0.000006 -0.036841 -0.247265 -26.721600
0.000000 0.000000 0.000000 0.000000 0.000000 -0.000000 1.409090 87.634100 -446.130000 89.885700 -6.672480 2.096620 15.735700 0.000005 -0.000001 97.318900 83.057600 -97.429000 8.984550 -0.406207 -0.000000 6.009610 1.765780 -0.312548 16.377300 -0.000001 -0.000001 -1.841560 -2.418590 2.920870 6.456720 -0.000001 -0.000000 -4.306370 -2.769220 0.598666 12.994200 -0.242716 4.980390 -91.052300 3.816330 -74.570600 5.348090 -0.000007 -0.000001 -67.244800 17.149800 11.988700 24.328600 0.000019 0.000005 6.088160 1.925580 -72.513200 22.291600 -0.000001 0.000005 12.386800 5.480130 -5.754270 12.994500 -0.242716 -4.980390 88.777100 8.358090 -81.645700 -5.348130 -0.000001 -0.000004 -53.126000 19.945900 -28.635300 -24.328900 0.000322 -0.000009 -15.495900 -0.715438 -87.420800 -22.291500 -0.000108 -0.000004 27.820500 5.597540 -11.190300 -2.192480 -6.469440 -0.000000 179.428000 -9.548160 -22.653200 39.081100 -0.000007 -0.000012 -0.380181 0.367606 45.964300 40.985400 -0.000006 -0.000013 1.323900 -2.254160 -71.717600 11.754300 -0.000000 0.000003 -0.000072 -0.000777 -16.607600 -2.192510 6.469440 -0.000001 173.512000 12.071500 162.508000 -39.081100 -0.002282 -0.040193 0.212189 -0.067978 71.991000 -40.985400 0.000008 0.000006 9.248870 -5.211670 -55.191000 -11.754300 -0.000006 -0.000006 -0.015500 -0.140945 -22.324400
0.000000 0.000000 0.000000 0.000000 0.000000 -0.000000 1.714440 87.093600 -442.975000 89.701400 -5.965550 2.465930 15.735700 0.000005 -0.000001 95.077600 82.942600 -95.112500 8.984550 -0.406207 -0.000000 6.294980 1.246090 -0.138128 16.377300 -0.000001 -0.000001 -1.975070 -2.542420 2.555070 6.456720 -0.000001 -0.000000 -4.351070 -2.689940 0.821406 12.994200 -0.242716 4.980390 -91.345700 5.032210 -75.007300 5.348090 -0.000007 -0.000001 -63.118200 18.003000 1.864220 24.328600 0.000019 0.000005 6.009860 1.739940 -73.912200 22.291600 -0.000001 0.000005 13.348800 5.474530 -5.540540 12.994500 -0.242716 -4.980390 88.554500 9.584670 -81.382500 -5.348130 -0.000001 -0.000004 -54.372000 22.061000 -21.374700 -24.328900 0.000322 -0.000009 -15.678700 -1.711920 -83.921500 -22.291500 -0.000108 -0.000004 28.441300 5.610680 -12.002600 -2.192480 -6.469440 -0.000000 179.571000 -9.452350 -20.884700 39.081100 -0.000007 -0.000012 -0.479924 0.432987 47.944400 40.985400 -0.000006 -0.000013 1.555800 -1.955200 -75.084800 11.754300 -0.000000 0.000003 -0.000181 -0.001705 -16.642000 -2.192510 6.469440 -0.000001 174.693000 11.214400 158.621000 -39.081100 -0.002282 -0.040193 0.176233 -0.044251 75.669500 -40.985400 0.000008 0.000006 9.315300 -4.274750 -59.290800 -11.754300 -0.000006 -0.000006 -0.015299 -0.139691 -22.272900
0.000000 0.000000 0.000000 0.000000 0.000000 -0.000000 1.895130 86.923900 -440.021000 89.395700 -4.572560 2.588600 15.735700 0.000005 -0.000001 91.567600 82.846900 -91.443100 8.984550 -0.406207 -0.000000 6.534520 0.388836 0.226449 16.377300 -0.000001 -0.000001 -2.140190 -2.720020 2.267720 6.456720 -0.000001 -0.000000 -4.481060 -2.518970 0.985756 12.994200 -0.242716 4.980390 -91.393000 5.504190 -75.774900 5.348090 -0.000007 -0.000001 -60.103500 17.234400 -8.558850 24.328600 0.000019 0.000005 5.857060 1.521960 -75.483100 22.291600 -0.000001 0.000005 13.931500 5.472850 -5.477410 12.994500 -0.242716 -4.980390 88.394200 10.029800 -80.855800 -5.348130 -0.000001 -0.000004 -56.641400 23.643600 -14.155100 -24.328900 0.000322 -0.000009 -14.762700 -3.147730 -78.227900 -22.291500 -0.000108 -0.000004 28.697100 5.624860 -12.961700 -2.192480 -6.469440 -0.000000 179.886000 -8.627290 -18.668300 39.081100 -0.000007 -0.000012 -0.531593 0.474674 48.238800 40.985400 -0.000006 -0.000013 1.717960 -1.610790 -77.439000 11.754300 -0.000000 0.000003 -0.000262 -0.002323 -16.664500 -2.192510 6.469440 -0.000001 176.347000 11.882600 154.895000 -39.081100 -0.002282 -0.040193 0.149636 -0.039512 74.916300 -40.985400 0.000008 0.000006 8.098190 -3.572050 -61.415800 -11.754300 -0.000006 -0.000006 -0.014950 -0.137500 -22.183000
